<?xml version="1.0" encoding="utf-8" ?>
<!-- Generator: Adobe Illustrator 23.0.1, SVG Export Plug-In . SVG Version: 6.00 Build 0)  -->
<svg version="1.1" xmlns="http://www.w3.org/2000/svg" xmlns:xlink="http://www.w3.org/1999/xlink" x="0px" y="0px"
     viewBox="0 0 200 200" xml:space="preserve">
<style type="text/css">
    #soccer {animation: bounce .6s .1s linear infinite;}
    #baseball {animation: bounce .6s .2s linear infinite;}
    #basketball {animation: bounce .6s .3s linear infinite;}
    #volleyball {animation: bounce .6s .4s linear infinite;}
@keyframes bounce {
    0 {transform: translate(0,0);}
    50% {transform: translate(0,30px);}
    100% {transform: translate(0,0);}
}
    .st0{fill:#000;}
	.st1{fill:#fff;stroke:#fff;stroke-width:0.5775;stroke-miterlimit:10;}
</style>
<g id="soccer">
<polygon class="st0" points="23.7,95.4 33.5,91.7 39.9,99.8 34.3,108.4 24.3,106 	" />
<path class="st1" d="M14.2,109.5l4.9,2.3l2.8,5.8C22,117.6,16.3,115.8,14.2,109.5z" />
<path class="st1" d="M34.6,119.7l3.5-4.6l6.4-0.3C44.5,114.7,38.8,119.8,34.6,119.7z" />
<path class="st0" d="M48.4,93.9l-2.2,6.3l3.2,5.1c0,0,1.7-5.2-1-11.6" />
<path class="st0" d="M31.3,82.6c0,0,4.6,0,8.1,2.3l-4.6,1.2L31.3,82.6z" />
<path class="st0" d="M13,95.9c0,0,1.6-5.7,5-8.1v4.6L13,95.9z" />
<path id="Outline" class="st0" d="M31,81.7c-10.7,0-19.5,8.8-19.5,19.6S20.2,121,31,121s19.5-8.8,19.5-19.6S41.7,81.7,31,81.7
		L31,81.7z M49,104.2l-2.4-3.9l1.6-4.9c0.6,1.8,0.9,3.8,0.9,5.9C49.2,102.4,49.2,103.3,49,104.2L49,104.2z M44.5,113.8
		c-0.1,0-0.1,0-0.2,0l-5.9,0.9c0-0.1,0-0.1-0.1-0.2l-3.3-5.7l5.4-8.4h5.2c0,0.1,0,0.1,0.1,0.2l3.2,5.3
		C48,108.9,46.5,111.6,44.5,113.8L44.5,113.8z M38.3,116l4.7-0.8c-2.1,1.7-4.5,3.1-7.2,3.8L38.3,116z M19.2,87.2
		c3.1-2.7,7-4.3,11.3-4.4c0,0.1,0.1,0.1,0.1,0.2l3.3,3.2l-1.4,5L24,94.7c0,0,0-0.1-0.1-0.1l-5.4-2.9L19.2,87.2z M34.9,85.5l-2.7-2.4
		c2.4,0.1,4.6,0.8,6.7,1.8L34.9,85.5z M24.9,105.5l-0.5-9.6l8.9-3.5l6,7.4l-5.2,8L24.9,105.5z M47.6,93.7
		C47.6,93.7,47.6,93.8,47.6,93.7l-1.8,5.5h-5.5L34,91.5l1.3-4.9l5.1-0.8c0.1,0,0.2-0.1,0.2-0.1C43.7,87.6,46.1,90.3,47.6,93.7
		L47.6,93.7z M17.7,88.6l-0.5,3.5L14,94.5C14.9,92.3,16.2,90.3,17.7,88.6L17.7,88.6z M13.3,96.5C13.3,96.5,13.4,96.5,13.3,96.5
		l4.9-3.6l5,2.7l0.6,10.4l0,0l-4.7,4.7l-0.1,0.1l-4.5-2l0,0c-1-2.3-1.6-4.9-1.6-7.5C12.7,99.7,13,98.1,13.3,96.5L13.3,96.5z
		 M15.2,110.6l3.3,1.4l2.5,4.7C18.6,115.2,16.7,113.1,15.2,110.6L15.2,110.6z M22.9,117.8v-0.1l-3.2-6.1c0,0,0.1,0,0.1-0.1l4.9-4.9
		l8.9,2.4l3.6,6.1l0.1,0.1l-3.3,4.2c-0.9,0.1-2,0.2-3,0.2C28.1,119.7,25.3,119.1,22.9,117.8L22.9,117.8z" />
</g>
<g id="baseball">
<path class="st0" d="M92.8,90c-3.1-4.3-7.5-7.3-12.7-8.3c-1.1-0.2-2.4-0.3-3.6-0.3c-9.5,0-17.8,6.8-19.5,16.2
				c-1.9,10.8,5.2,21.1,16,23.2c1.1,0.2,2.4,0.3,3.6,0.3l0,0c9.5,0,17.8-6.8,19.5-16.2C97,99.7,95.9,94.3,92.8,90L92.8,90z
				 M58.9,98.1c0.7-3.4,2.3-6.5,4.5-9c0.5,0.5,0.9,1,1.2,1.6l-0.8,0.8c-0.5,0.3-0.5,1,0,1.5c0.2,0.2,0.5,0.3,0.7,0.3
				s0.5-0.1,0.7-0.3l0.6-0.6c0.3,0.6,0.7,1.2,0.9,1.9l-1.1,0.5C65,95,64.8,95.6,65,96.2c0.1,0.3,0.6,0.6,0.9,0.6
				c0.1,0,0.2,0,0.5-0.1l1-0.5c0.2,0.7,0.3,1.4,0.5,2l-1,0.1c-0.6,0-0.9,0.6-0.9,1.1s0.5,0.9,1,0.9h0.1l1-0.1c0,0.7,0,1.4,0,2
				l-1-0.1c-0.6,0-1,0.3-1.1,0.9c0,0.6,0.3,1,0.9,1.1l0.9,0.1v0.1c-0.1,0.7-0.2,1.4-0.5,1.9l-1-0.5c-0.6-0.2-1.1,0-1.4,0.6
				s0,1.1,0.6,1.4l1.1,0.5c-0.2,0.7-0.6,1.2-0.9,1.9l-0.5-0.5c-0.5-0.3-1-0.3-1.5,0c-0.3,0.5-0.3,1,0,1.5l0.8,0.8
				c-0.3,0.5-0.8,1-1.2,1.5C59.7,109.4,57.9,103.8,58.9,98.1L58.9,98.1z M76.5,119.1c-1,0-2.2-0.1-3.2-0.3c-3.2-0.6-6-2-8.4-4
				c0.5-0.5,0.8-0.9,1.2-1.5l0.7,0.7c0.2,0.2,0.5,0.3,0.7,0.3c0.2,0,0.6-0.1,0.7-0.3c0.3-0.5,0.3-1,0-1.5l-0.9-0.9
				c0.5-0.8,0.9-1.7,1.4-2.5l0.8,0.3c0.1,0,0.2,0.1,0.5,0.1c0.3,0,0.8-0.2,0.9-0.6c0.2-0.6,0-1.1-0.6-1.4l-0.9-0.3
				c0.2-0.8,0.5-1.6,0.6-2.4c0-0.1,0-0.2,0-0.3l1.1,0.1h0.1c0.6,0,0.9-0.3,1-0.9c0-0.6-0.3-1-0.9-1.1l-1.1-0.1c0-0.8,0-1.6,0-2.4
				l1.1-0.1c0.6,0,0.9-0.6,0.9-1.1c0-0.6-0.6-0.9-1.1-0.9l-1.1,0.1c-0.1-0.9-0.3-1.8-0.7-2.7l0.9-0.3c0.6-0.2,0.8-0.8,0.6-1.4
				c-0.2-0.6-0.8-0.8-1.4-0.6l-0.8,0.3c-0.3-0.9-0.8-1.7-1.4-2.6l0.9-0.9c0.5-0.3,0.5-1,0-1.5c-0.3-0.5-1-0.5-1.5,0l-0.7,0.7
				c-0.5-0.6-0.8-1-1.2-1.6c3.2-2.7,7.2-4.3,11.6-4.3c1,0,2.2,0.1,3.2,0.3c3.1,0.6,5.9,1.9,8.3,4c-0.5,0.6-0.9,1-1.4,1.6l-0.7-0.7
				c-0.5-0.3-1-0.3-1.5,0c-0.3,0.5-0.3,1,0,1.5l0.9,0.9c-0.5,0.8-0.9,1.7-1.4,2.6L83,93.1c-0.6-0.2-1.1,0-1.4,0.6s0,1.1,0.6,1.4
				l0.9,0.3c-0.2,0.9-0.5,1.8-0.7,2.7L81.3,98c-0.6,0-1,0.3-1.1,0.9c0,0.6,0.3,1,0.9,1.1l1.1,0.1c0,0.8,0,1.6,0,2.4l-1.1,0.1
				c-0.6,0-0.9,0.6-0.9,1.1c0,0.6,0.5,0.9,1,0.9h0.1l1.1-0.1c0,0.1,0,0.2,0,0.3c0.1,0.8,0.3,1.6,0.6,2.4l-0.9,0.3
				c-0.6,0.2-0.8,0.8-0.6,1.4c0.1,0.3,0.6,0.6,0.9,0.6c0.1,0,0.2,0,0.5-0.1l0.8-0.3c0.3,0.9,0.8,1.7,1.4,2.5l-0.9,0.9
				c-0.5,0.3-0.5,1,0,1.5c0.2,0.2,0.5,0.3,0.7,0.3c0.2,0,0.5-0.1,0.7-0.3l0.7-0.7c0.5,0.6,0.8,1,1.2,1.5
				C84.9,117.5,80.8,119.1,76.5,119.1L76.5,119.1z M94.1,104.4c-0.7,3.5-2.3,6.6-4.5,9c-0.5-0.5-0.9-1-1.4-1.6L89,111
				c0.5-0.3,0.5-1,0-1.5c-0.3-0.5-1-0.5-1.5,0l-0.5,0.5c-0.3-0.6-0.7-1.2-0.9-1.9l1.1-0.5c0.6-0.2,0.8-0.8,0.6-1.4s-0.8-0.8-1.4-0.6
				l-1,0.5c-0.2-0.7-0.3-1.2-0.5-1.9v-0.1l0.9-0.1c0.6,0,0.9-0.6,0.9-1.1s-0.6-0.9-1.1-0.9l-1,0.1c0-0.7,0-1.4,0-2l1,0.1h0.1
				c0.6,0,0.9-0.3,1-0.9c0-0.6-0.3-1-0.9-1.1l-1-0.1c0.1-0.7,0.2-1.4,0.5-2l1,0.5c0.1,0,0.2,0.1,0.5,0.1c0.3,0,0.8-0.2,0.9-0.6
				c0.2-0.6,0-1.1-0.6-1.4L86,94.1c0.2-0.7,0.6-1.2,0.9-1.9l0.6,0.6c0.2,0.2,0.5,0.3,0.7,0.3s0.6-0.1,0.7-0.3c0.3-0.5,0.3-1,0-1.5
				l-0.8-0.8c0.5-0.6,0.9-1.1,1.4-1.6c0.6,0.7,1.1,1.4,1.7,2C93.9,95,94.9,99.8,94.1,104.4L94.1,104.4z" />
</g>
<g id="basketball">
<path class="st0" d="M122.4,81.7c-10.7,0-19.6,8.8-19.6,19.6s8.8,19.6,19.6,19.6c10.9,0,19.6-8.8,19.6-19.6S133.2,81.7,122.4,81.7
			L122.4,81.7z M104.8,101c0-4.5,1.8-8.6,4.6-11.6l6.7,6.7C112.9,98.9,109,100.7,104.8,101L104.8,101z M122.2,83.6
			c-0.4,4.3-2.1,8.2-4.9,11.3l-6.7-6.7C113.7,85.3,117.7,83.6,122.2,83.6L122.2,83.6z M140.1,101.5c0,4.5-1.8,8.6-4.6,11.6l-6.7-6.7
			C132,103.6,135.9,101.8,140.1,101.5L140.1,101.5z M127.6,105.1l-3.8-3.8l11.9-11.9c2.5,2.8,4.1,6.3,4.5,10.2
			C135.4,100,130.9,101.9,127.6,105.1L127.6,105.1z M117.3,97.4l3.8,3.8l-11.9,11.9c-2.5-2.8-4.1-6.3-4.5-10.2
			C109.5,102.5,113.9,100.6,117.3,97.4L117.3,97.4z M122.4,99.9l-3.8-3.8c3.1-3.5,5-7.8,5.5-12.5c3.9,0.3,7.4,2,10.2,4.5L122.4,99.9
			z M122.4,102.6l3.8,3.8c-3.1,3.5-5,7.8-5.5,12.5c-3.9-0.3-7.4-2-10.2-4.5L122.4,102.6z M127.6,107.7l6.7,6.7
			c-3.1,2.8-7.2,4.5-11.6,4.6C123,114.7,124.8,110.8,127.6,107.7L127.6,107.7z" />
</g>
<g id="volleyball">
<path class="st0" d="M169.1,118.3c3.9-3.9,7.7-9.7,8.7-18.2c2.5,0.1,4.5,0.7,6.3,1.5C184,110.1,177.5,117.1,169.1,118.3
			L169.1,118.3z M149.9,101.3c0-2.1,0.4-4,1.1-5.9c1.5,5.3,4.5,11.5,11.1,16.8c-1.2,1.7-2.6,3-3.8,3.9
			C153.2,113,149.9,107.5,149.9,101.3L149.9,101.3z M156.3,87.8c0.9,4.4,3.4,9.8,9.4,14c-0.2,3.2-1.1,5.9-2.3,8.2
			c-7.2-5.8-9.8-12.9-10.7-18.1C153.7,90.3,154.9,89,156.3,87.8L156.3,87.8z M167.1,99.8c-2.6-1.8-4.4-3.7-5.7-5.7
			c10-4.1,18.2-0.4,21.7,1.6c0.3,1,0.6,2,0.8,3C180.1,97.5,173.9,96.6,167.1,99.8L167.1,99.8z M165.4,118.3
			c-1.7-0.1-3.2-0.6-4.7-1.1c3-2.7,6.8-7.5,7.4-15.1c2.6-1.2,5-1.9,7.3-2C174.2,109.1,169.4,114.9,165.4,118.3L165.4,118.3z
			 M181.4,92c-4.7-2-12.3-3.8-21.1-0.1c-0.9-2-1.5-3.9-1.7-5.6c2.5-1.5,5.4-2.2,8.4-2.2C173,84.1,178.4,87.3,181.4,92L181.4,92z
			 M167,81.7c-10.7,0-19.6,8.8-19.6,19.6s8.8,19.6,19.6,19.6s19.6-8.8,19.6-19.6S177.7,81.7,167,81.7L167,81.7z" />
</g>
</svg>
